<svg width="35" height="35" viewBox="0 0 35 35" fill="none" xmlns="http://www.w3.org/2000/svg">
<g id="Group_light">
<circle id="Ellipse 46" cx="17.5" cy="11.6667" r="3.375" stroke="#737791" stroke-width="2" stroke-linecap="round"/>
<path id="Ellipse 47" d="M20.3128 9.61459C20.5744 9.1614 20.9646 8.79598 21.4339 8.56453C21.9033 8.33308 22.4307 8.246 22.9495 8.31431C23.4683 8.38261 23.9552 8.60323 24.3487 8.94826C24.7421 9.2933 25.0244 9.74725 25.1598 10.2527C25.2953 10.7582 25.2778 11.2925 25.1096 11.788C24.9414 12.2835 24.63 12.718 24.2148 13.0366C23.7997 13.3551 23.2994 13.5434 22.7772 13.5777C22.255 13.6119 21.7344 13.4905 21.2812 13.2289" stroke="#737791" stroke-width="2"/>
<path id="Ellipse 49" d="M14.6872 9.61459C14.4256 9.1614 14.0354 8.79598 13.5661 8.56453C13.0967 8.33308 12.5693 8.246 12.0505 8.31431C11.5317 8.38261 11.0448 8.60323 10.6513 8.94826C10.2579 9.2933 9.97561 9.74725 9.84017 10.2527C9.70474 10.7582 9.72223 11.2925 9.89043 11.788C10.0586 12.2835 10.37 12.718 10.7852 13.0366C11.2003 13.3551 11.7006 13.5434 12.2228 13.5777C12.745 13.6119 13.2656 13.4905 13.7188 13.2289" stroke="#737791" stroke-width="2"/>
<path id="Rectangle 4160" d="M17.5 18.2292C23.8383 18.2292 25.1679 23.6931 25.4468 25.9855C25.5135 26.5338 25.0731 26.9792 24.5209 26.9792H10.4792C9.9269 26.9792 9.48653 26.5338 9.55323 25.9855C9.83216 23.6931 11.1618 18.2292 17.5 18.2292Z" stroke="#737791" stroke-width="2" stroke-linecap="round"/>
<path id="Subtract" d="M28.2549 22.9751L27.2768 23.1831V23.1831L28.2549 22.9751ZM19.0853 18.3544L18.3468 17.6802L17.106 19.0392L18.9214 19.3409L19.0853 18.3544ZM25.0561 24.0625L24.0954 24.3404L24.3044 25.0625H25.0561V24.0625ZM22.6041 17.7708C24.1037 17.7708 25.1334 18.5555 25.8865 19.6705C26.6574 20.8118 27.0714 22.2174 27.2768 23.1831L29.233 22.767C29.0061 21.7001 28.525 20.0036 27.5438 18.551C26.5448 17.072 24.9653 15.7708 22.6041 15.7708V17.7708ZM19.8238 19.0287C20.5115 18.2756 21.396 17.7708 22.6041 17.7708V15.7708C20.7402 15.7708 19.3451 16.5868 18.3468 17.6802L19.8238 19.0287ZM18.9214 19.3409C22.1275 19.8737 23.4932 22.2589 24.0954 24.3404L26.0167 23.7846C25.3163 21.3638 23.5542 18.0834 19.2493 17.368L18.9214 19.3409ZM27.3325 23.0625H25.0561V25.0625H27.3325V23.0625ZM27.2768 23.1831C27.2748 23.1736 27.2736 23.1541 27.2798 23.131C27.2856 23.1093 27.2954 23.0932 27.3044 23.0827C27.3223 23.062 27.3373 23.0625 27.3325 23.0625V25.0625C28.4936 25.0625 29.5019 24.0312 29.233 22.767L27.2768 23.1831Z" fill="#737791"/>
<path id="Subtract_2" d="M15.9147 18.3544L16.0786 19.3409L17.894 19.0392L16.6532 17.6802L15.9147 18.3544ZM6.74506 22.9751L5.76694 22.767L6.74506 22.9751ZM9.94394 24.0625V25.0625H10.6956L10.9045 24.3404L9.94394 24.0625ZM12.3958 17.7708C13.604 17.7708 14.4885 18.2756 15.1762 19.0287L16.6532 17.6802C15.6549 16.5868 14.2598 15.7708 12.3958 15.7708V17.7708ZM7.72317 23.1831C7.9286 22.2174 8.34259 20.8118 9.11351 19.6705C9.86661 18.5555 10.8963 17.7708 12.3958 17.7708V15.7708C10.0347 15.7708 8.45519 17.072 7.45617 18.551C6.47497 20.0036 5.9939 21.7001 5.76694 22.767L7.72317 23.1831ZM7.6675 23.0625C7.66264 23.0625 7.67771 23.062 7.69559 23.0827C7.70457 23.0932 7.71438 23.1093 7.72017 23.131C7.72636 23.1541 7.7252 23.1736 7.72317 23.1831L5.76694 22.767C5.49801 24.0312 6.50632 25.0625 7.6675 25.0625V23.0625ZM9.94394 23.0625H7.6675V25.0625H9.94394V23.0625ZM10.9045 24.3404C11.5068 22.2589 12.8725 19.8737 16.0786 19.3409L15.7507 17.368C11.4458 18.0834 9.68368 21.3638 8.98333 23.7846L10.9045 24.3404Z" fill="#737791"/>
</g>
</svg>
