<svg width="40" height="40" viewBox="0 0 40 40" fill="none" xmlns="http://www.w3.org/2000/svg">
<circle cx="20" cy="20" r="20" fill="#3CD856"/>
<circle cx="20.5" cy="14.6667" r="3.375" stroke="white" stroke-width="2" stroke-linecap="round"/>
<path d="M23.3128 12.6146C23.5745 12.1614 23.9646 11.796 24.4339 11.5645C24.9033 11.3331 25.4307 11.246 25.9495 11.3143C26.4683 11.3826 26.9552 11.6032 27.3487 11.9482C27.7421 12.2933 28.0244 12.7472 28.1598 13.2527C28.2953 13.7582 28.2778 14.2924 28.1096 14.788C27.9414 15.2835 27.63 15.718 27.2148 16.0366C26.7997 16.3551 26.2994 16.5434 25.7772 16.5777C25.255 16.6119 24.7344 16.4905 24.2812 16.2288" stroke="white" stroke-width="2"/>
<path d="M17.6872 12.6146C17.4255 12.1614 17.0354 11.796 16.5661 11.5645C16.0967 11.3331 15.5693 11.246 15.0505 11.3143C14.5317 11.3826 14.0447 11.6032 13.6513 11.9482C13.2579 12.2933 12.9756 12.7472 12.8402 13.2527C12.7047 13.7582 12.7222 14.2924 12.8904 14.788C13.0586 15.2835 13.37 15.718 13.7851 16.0366C14.2003 16.3551 14.7006 16.5434 15.2228 16.5777C15.745 16.6119 16.2656 16.4905 16.7187 16.2288" stroke="white" stroke-width="2"/>
<path d="M20.5 21.2292C26.8382 21.2292 28.1679 26.6931 28.4468 28.9855C28.5135 29.5338 28.0731 29.9792 27.5208 29.9792H13.4792C12.9269 29.9792 12.4865 29.5338 12.5532 28.9855C12.8321 26.6931 14.1618 21.2292 20.5 21.2292Z" stroke="white" stroke-width="2" stroke-linecap="round"/>
<path d="M31.2549 25.9751L30.2768 26.1832V26.1832L31.2549 25.9751ZM22.0853 21.3545L21.3469 20.6802L20.106 22.0392L21.9214 22.3409L22.0853 21.3545ZM28.0561 27.0625L27.0955 27.3404L27.3044 28.0625H28.0561V27.0625ZM25.6042 20.7708C27.1037 20.7708 28.1334 21.5555 28.8865 22.6705C29.6574 23.8118 30.0714 25.2175 30.2768 26.1832L32.233 25.767C32.0061 24.7001 31.525 23.0037 30.5438 21.551C29.5448 20.072 27.9653 18.7708 25.6042 18.7708V20.7708ZM22.8238 22.0287C23.5115 21.2756 24.396 20.7708 25.6042 20.7708V18.7708C23.7402 18.7708 22.3452 19.5868 21.3469 20.6802L22.8238 22.0287ZM21.9214 22.3409C25.1275 22.8737 26.4933 25.2589 27.0955 27.3404L29.0167 26.7846C28.3163 24.3639 26.5542 21.0834 22.2493 20.368L21.9214 22.3409ZM30.3325 26.0625H28.0561V28.0625H30.3325V26.0625ZM30.2768 26.1832C30.2748 26.1736 30.2736 26.1542 30.2798 26.131C30.2856 26.1093 30.2954 26.0932 30.3044 26.0828C30.3223 26.062 30.3373 26.0625 30.3325 26.0625V28.0625C31.4937 28.0625 32.502 27.0312 32.233 25.767L30.2768 26.1832Z" fill="white"/>
<path d="M18.9147 21.3545L19.0786 22.3409L20.894 22.0392L19.6532 20.6802L18.9147 21.3545ZM9.74506 25.9751L8.76694 25.767L9.74506 25.9751ZM12.9439 27.0625V28.0625H13.6956L13.9045 27.3404L12.9439 27.0625ZM15.3958 20.7708C16.604 20.7708 17.4885 21.2756 18.1762 22.0287L19.6532 20.6802C18.6549 19.5868 17.2598 18.7708 15.3958 18.7708V20.7708ZM10.7232 26.1832C10.9286 25.2175 11.3426 23.8118 12.1135 22.6705C12.8666 21.5555 13.8963 20.7708 15.3958 20.7708V18.7708C13.0347 18.7708 11.4552 20.072 10.4562 21.551C9.47497 23.0037 8.9939 24.7001 8.76694 25.767L10.7232 26.1832ZM10.6675 26.0625C10.6626 26.0625 10.6777 26.062 10.6956 26.0828C10.7046 26.0932 10.7144 26.1093 10.7202 26.131C10.7264 26.1542 10.7252 26.1736 10.7232 26.1832L8.76694 25.767C8.49801 27.0312 9.50632 28.0625 10.6675 28.0625V26.0625ZM12.9439 26.0625H10.6675V28.0625H12.9439V26.0625ZM13.9045 27.3404C14.5068 25.2589 15.8725 22.8737 19.0786 22.3409L18.7507 20.368C14.4458 21.0834 12.6837 24.3639 11.9833 26.7846L13.9045 27.3404Z" fill="white"/>
</svg>
