<svg width="54" height="49" viewBox="0 0 54 49" fill="none" xmlns="http://www.w3.org/2000/svg">
<mask id="mask0_8257_480" style="mask-type:alpha" maskUnits="userSpaceOnUse" x="6" y="7" width="41" height="38">
<path d="M6.59521 15.0431C6.59521 11.2719 6.59521 9.38627 7.76679 8.21469C8.93836 7.04312 10.824 7.04312 14.5952 7.04312H38.6563C42.4275 7.04312 44.3131 7.04312 45.4847 8.21469C46.6563 9.38627 46.6563 11.2719 46.6563 15.0431V36.5431C46.6563 40.3144 46.6563 42.2 45.4847 43.3715C44.3131 44.5431 42.4275 44.5431 38.6563 44.5431H14.5952C10.824 44.5431 8.93836 44.5431 7.76679 43.3715C6.59521 42.2 6.59521 40.3144 6.59521 36.5431V15.0431Z" fill="#273B4A"/>
</mask>
<g mask="url(#mask0_8257_480)">
<path d="M15.8918 23.3409L9.32545 29.4874C7.9828 30.7442 7.31147 31.3727 6.98088 32.1977C6.65029 33.0227 6.70191 33.9408 6.80515 35.777L7.70802 51.8348H46.6563V38.889V38.8889C46.6563 37.0589 46.6563 36.1438 46.2832 35.3417C45.91 34.5395 45.2102 33.9499 43.8106 32.7708L38.2452 28.0821C36.9521 26.9927 36.3055 26.448 35.5458 26.4679C34.7861 26.4877 34.1689 27.0655 32.9345 28.221L28.6543 32.2276C27.7288 33.094 27.266 33.5271 26.7633 33.4281C26.2607 33.3291 25.9968 32.7527 25.469 31.6L22.2623 24.5959C21.2068 22.2906 20.679 21.1379 19.6737 20.9398C18.6684 20.7418 17.7429 21.6081 15.8918 23.3409Z" fill="#7E869E" fill-opacity="0.25" stroke="#222222"/>
</g>
<path d="M6.59521 15.0431C6.59521 11.2719 6.59521 9.38627 7.76679 8.21469C8.93836 7.04312 10.824 7.04312 14.5952 7.04312H38.6563C42.4275 7.04312 44.3131 7.04312 45.4847 8.21469C46.6563 9.38627 46.6563 11.2719 46.6563 15.0431V36.5431C46.6563 40.3144 46.6563 42.2 45.4847 43.3715C44.3131 44.5431 42.4275 44.5431 38.6563 44.5431H14.5952C10.824 44.5431 8.93836 44.5431 7.76679 43.3715C6.59521 42.2 6.59521 40.3144 6.59521 36.5431V15.0431Z" stroke="#222222" stroke-width="1.2"/>
<ellipse cx="36.6414" cy="16.4181" rx="3.33819" ry="3.125" fill="#222222"/>
</svg>
